<svg width="40" height="40" viewBox="0 0 40 40" fill="none" xmlns="http://www.w3.org/2000/svg">
<path d="M9.41659 29.0834C11.0555 27.9814 12.736 27.1366 14.4583 26.5488C16.1805 25.9607 18.0277 25.6667 19.9999 25.6667C21.9721 25.6667 23.8239 25.9607 25.5553 26.5488C27.287 27.1366 28.9723 27.9814 30.6112 29.0834C31.7501 27.7037 32.581 26.2638 33.1041 24.7638C33.6271 23.2638 33.8887 21.6759 33.8887 20C33.8887 16.0834 32.5531 12.7893 29.882 10.118C27.2106 7.44685 23.9166 6.11129 19.9999 6.11129C16.0833 6.11129 12.7892 7.44685 10.1178 10.118C7.44672 12.7893 6.11117 16.0834 6.11117 20C6.11117 21.6759 6.37728 23.2638 6.9095 24.7638C7.442 26.2638 8.2777 27.7037 9.41659 29.0834ZM19.9949 21.3888C18.378 21.3888 17.0162 20.8339 15.9095 19.7242C14.8031 18.6142 14.2499 17.2507 14.2499 15.6338C14.2499 14.0168 14.8049 12.6552 15.9149 11.5488C17.0246 10.4421 18.388 9.88879 20.0049 9.88879C21.6219 9.88879 22.9837 10.4438 24.0903 11.5538C25.1967 12.6638 25.7499 14.0273 25.7499 15.6442C25.7499 17.2612 25.1949 18.6228 24.0849 19.7292C22.9752 20.8356 21.6119 21.3888 19.9949 21.3888ZM19.9887 36.6667C17.6803 36.6667 15.5112 36.2292 13.4812 35.3542C11.4509 34.4792 9.68492 33.2871 8.18325 31.778C6.68131 30.2685 5.49756 28.5014 4.632 26.4767C3.76617 24.452 3.33325 22.2885 3.33325 19.9863C3.33325 17.6841 3.77075 15.5205 4.64575 13.4955C5.52075 11.4707 6.71284 9.70837 8.222 8.20837C9.73145 6.70837 11.4985 5.52087 13.5233 4.64587C15.548 3.77087 17.7114 3.33337 20.0137 3.33337C22.3159 3.33337 24.4795 3.77087 26.5045 4.64587C28.5292 5.52087 30.2916 6.70837 31.7916 8.20837C33.2916 9.70837 34.4791 11.4723 35.3541 13.5C36.2291 15.5278 36.6666 17.692 36.6666 19.9925C36.6666 22.2934 36.2291 24.4555 35.3541 26.4788C34.4791 28.5021 33.2916 30.2685 31.7916 31.778C30.2916 33.2871 28.5264 34.4792 26.4962 35.3542C24.4662 36.2292 22.297 36.6667 19.9887 36.6667Z" fill="white"/>
</svg>
