<svg width="32" height="32" viewBox="0 0 32 32" fill="none" xmlns="http://www.w3.org/2000/svg">
<path d="M12.7345 19.4917L8.35474 15.081L8.3535 15.0798C7.99606 14.7223 7.5534 14.5333 7.04995 14.5333C6.5465 14.5333 6.10384 14.7223 5.7464 15.0798C5.39247 15.4337 5.1986 15.8703 5.18351 16.3682C5.1681 16.877 5.352 17.3258 5.71306 17.6869L11.4464 23.4202C11.8005 23.7743 12.2365 23.9667 12.7333 23.9667C13.2301 23.9667 13.666 23.7743 14.0202 23.4202L14.0207 23.4197L26.2535 11.1536C26.2536 11.1535 26.2537 11.1534 26.2537 11.1533C26.611 10.7959 26.8 10.3533 26.8 9.85C26.8 9.34655 26.6109 8.90389 26.2535 8.54645C25.8994 8.19232 25.4635 8 24.9666 8C24.4698 8 24.0339 8.19232 23.6797 8.54645L12.7345 19.4917Z" fill="#21CC27" stroke="#21CC27"/>
</svg>
