<svg width="20" height="20" viewBox="0 0 20 20" fill="none" xmlns="http://www.w3.org/2000/svg">
<path d="M5.35 15.5833L3.5675 17.5C3.32208 17.7639 3.04115 17.8229 2.72469 17.6771C2.40823 17.5312 2.25 17.2708 2.25 16.8958V3.91667C2.25 3.45833 2.40177 3.06597 2.70531 2.73958C3.00885 2.41319 3.37375 2.25 3.8 2.25H16.2C16.6263 2.25 16.9911 2.41319 17.2947 2.73958C17.5982 3.06597 17.75 3.45833 17.75 3.91667V13.9167C17.75 14.375 17.5982 14.7674 17.2947 15.0938C16.9911 15.4201 16.6263 15.5833 16.2 15.5833H5.35ZM4.69125 13.9167H16.2V3.91667H3.8V14.8542L4.69125 13.9167ZM6.125 12.25H10.775C10.9946 12.25 11.1786 12.1701 11.3272 12.0104C11.4757 11.8507 11.55 11.6528 11.55 11.4167C11.55 11.1806 11.4757 10.9826 11.3272 10.8229C11.1786 10.6632 10.9946 10.5833 10.775 10.5833H6.125C5.90542 10.5833 5.72135 10.6632 5.57281 10.8229C5.42427 10.9826 5.35 11.1806 5.35 11.4167C5.35 11.6528 5.42427 11.8507 5.57281 12.0104C5.72135 12.1701 5.90542 12.25 6.125 12.25ZM6.125 9.75H13.875C14.0946 9.75 14.2786 9.67014 14.4272 9.51042C14.5757 9.35069 14.65 9.15278 14.65 8.91667C14.65 8.68056 14.5757 8.48264 14.4272 8.32292C14.2786 8.16319 14.0946 8.08333 13.875 8.08333H6.125C5.90542 8.08333 5.72135 8.16319 5.57281 8.32292C5.42427 8.48264 5.35 8.68056 5.35 8.91667C5.35 9.15278 5.42427 9.35069 5.57281 9.51042C5.72135 9.67014 5.90542 9.75 6.125 9.75ZM6.125 7.25H13.875C14.0946 7.25 14.2786 7.17014 14.4272 7.01042C14.5757 6.85069 14.65 6.65278 14.65 6.41667C14.65 6.18056 14.5757 5.98264 14.4272 5.82292C14.2786 5.66319 14.0946 5.58333 13.875 5.58333H6.125C5.90542 5.58333 5.72135 5.66319 5.57281 5.82292C5.42427 5.98264 5.35 6.18056 5.35 6.41667C5.35 6.65278 5.42427 6.85069 5.57281 7.01042C5.72135 7.17014 5.90542 7.25 6.125 7.25Z" fill="white"/>
</svg>
