<svg width="32" height="32" viewBox="0 0 32 32" fill="none" xmlns="http://www.w3.org/2000/svg">
<path d="M15.0247 26.0495C11.9435 26.0495 9.33569 24.9823 7.20141 22.8481C5.06714 20.7138 4 18.106 4 15.0247C4 11.9435 5.06714 9.33569 7.20141 7.20141C9.33569 5.06714 11.9435 4 15.0247 4C18.106 4 20.7138 5.06714 22.8481 7.20141C24.9823 9.33569 26.0495 11.9435 26.0495 15.0247C26.0495 16.2686 25.8516 17.4417 25.4558 18.5442C25.0601 19.6466 24.523 20.6219 23.8445 21.47L27.5336 25.159C27.8445 25.47 28 25.8657 28 26.3463C28 26.8269 27.8445 27.2226 27.5336 27.5336C27.2226 27.8445 26.8269 28 26.3463 28C25.8657 28 25.47 27.8445 25.159 27.5336L21.47 23.8445C20.6219 24.523 19.6466 25.0601 18.5442 25.4558C17.4417 25.8516 16.2686 26.0495 15.0247 26.0495ZM15.0247 22.6572C17.1449 22.6572 18.947 21.9152 20.4311 20.4311C21.9152 18.947 22.6572 17.1449 22.6572 15.0247C22.6572 12.9046 21.9152 11.1025 20.4311 9.61838C18.947 8.13428 17.1449 7.39223 15.0247 7.39223C12.9046 7.39223 11.1025 8.13428 9.61838 9.61838C8.13428 11.1025 7.39223 12.9046 7.39223 15.0247C7.39223 17.1449 8.13428 18.947 9.61838 20.4311C11.1025 21.9152 12.9046 22.6572 15.0247 22.6572Z" fill="black" stroke="white"/>
</svg>
