<svg width="128" height="48" viewBox="0 0 128 48" fill="none" xmlns="http://www.w3.org/2000/svg">
<rect opacity="0.8" width="128" height="48" rx="24" fill="white"/>
<path d="M79.1125 30V19.12H80.8725V30H79.1125ZM77.2725 23.92V22.32H82.7125V23.92H77.2725Z" fill="black"/>
<path d="M73.5815 30.16C73.1548 30.16 72.7441 30.1067 72.3495 30C71.9548 29.8827 71.5921 29.7227 71.2615 29.52C70.9308 29.3067 70.6428 29.0507 70.3975 28.752L71.5175 27.632C71.7841 27.9413 72.0881 28.176 72.4295 28.336C72.7815 28.4853 73.1761 28.56 73.6135 28.56C74.0081 28.56 74.3068 28.5013 74.5095 28.384C74.7121 28.2667 74.8135 28.096 74.8135 27.872C74.8135 27.6373 74.7175 27.456 74.5255 27.328C74.3335 27.2 74.0828 27.0933 73.7735 27.008C73.4748 26.912 73.1548 26.816 72.8135 26.72C72.4828 26.624 72.1628 26.496 71.8535 26.336C71.5548 26.1653 71.3095 25.936 71.1175 25.648C70.9255 25.36 70.8295 24.9867 70.8295 24.528C70.8295 24.0373 70.9415 23.616 71.1655 23.264C71.4001 22.912 71.7255 22.64 72.1415 22.448C72.5681 22.256 73.0748 22.16 73.6615 22.16C74.2801 22.16 74.8241 22.272 75.2935 22.496C75.7735 22.7093 76.1735 23.0347 76.4935 23.472L75.3735 24.592C75.1495 24.3147 74.8935 24.1067 74.6055 23.968C74.3175 23.8293 73.9868 23.76 73.6135 23.76C73.2615 23.76 72.9895 23.8133 72.7975 23.92C72.6055 24.0267 72.5095 24.1813 72.5095 24.384C72.5095 24.5973 72.6055 24.7627 72.7975 24.88C72.9895 24.9973 73.2348 25.0987 73.5335 25.184C73.8428 25.2693 74.1628 25.3653 74.4935 25.472C74.8348 25.568 75.1548 25.7067 75.4535 25.888C75.7628 26.0587 76.0135 26.2933 76.2055 26.592C76.3975 26.88 76.4935 27.2587 76.4935 27.728C76.4935 28.4747 76.2321 29.0667 75.7095 29.504C75.1868 29.9413 74.4775 30.16 73.5815 30.16Z" fill="black"/>
<path d="M67.3353 30V22.32H69.0953V30H67.3353ZM68.2153 20.912C67.9166 20.912 67.666 20.8107 67.4633 20.608C67.2713 20.4054 67.1753 20.1547 67.1753 19.856C67.1753 19.5574 67.2713 19.3067 67.4633 19.104C67.666 18.9014 67.9166 18.8 68.2153 18.8C68.5246 18.8 68.7753 18.9014 68.9673 19.104C69.1593 19.3067 69.2553 19.5574 69.2553 19.856C69.2553 20.1547 69.1593 20.4054 68.9673 20.608C68.7753 20.8107 68.5246 20.912 68.2153 20.912Z" fill="black"/>
<path d="M63.6006 30V18.48H65.3606V30H63.6006Z" fill="black"/>
<path d="M54.9022 30.16C54.1556 30.16 53.4782 29.984 52.8702 29.632C52.2622 29.2693 51.7769 28.784 51.4142 28.176C51.0622 27.568 50.8862 26.8907 50.8862 26.144C50.8862 25.3973 51.0622 24.7253 51.4142 24.128C51.7769 23.5307 52.2622 23.056 52.8702 22.704C53.4782 22.3413 54.1556 22.16 54.9022 22.16C55.6596 22.16 56.3422 22.336 56.9502 22.688C57.5582 23.04 58.0382 23.52 58.3902 24.128C58.7529 24.7253 58.9342 25.3973 58.9342 26.144C58.9342 26.8907 58.7529 27.568 58.3902 28.176C58.0382 28.784 57.5582 29.2693 56.9502 29.632C56.3422 29.984 55.6596 30.16 54.9022 30.16ZM54.9022 28.464C55.3396 28.464 55.7236 28.368 56.0542 28.176C56.3956 27.9733 56.6569 27.696 56.8382 27.344C57.0302 26.992 57.1262 26.592 57.1262 26.144C57.1262 25.696 57.0302 25.3013 56.8382 24.96C56.6462 24.6187 56.3849 24.352 56.0542 24.16C55.7236 23.9573 55.3396 23.856 54.9022 23.856C54.4756 23.856 54.0916 23.9573 53.7502 24.16C53.4196 24.352 53.1582 24.6187 52.9662 24.96C52.7849 25.3013 52.6942 25.696 52.6942 26.144C52.6942 26.592 52.7849 26.992 52.9662 27.344C53.1582 27.696 53.4196 27.9733 53.7502 28.176C54.0916 28.368 54.4756 28.464 54.9022 28.464Z" fill="black"/>
<path d="M46.7218 30V19.12H48.4818V30H46.7218ZM44.8818 23.92V22.32H50.3218V23.92H44.8818Z" fill="black"/>
<path d="M36.8554 30.16C36.1087 30.16 35.4314 29.984 34.8234 29.632C34.2154 29.2693 33.73 28.784 33.3674 28.176C33.0154 27.568 32.8394 26.8907 32.8394 26.144C32.8394 25.3973 33.0154 24.7253 33.3674 24.128C33.73 23.5307 34.2154 23.056 34.8234 22.704C35.4314 22.3413 36.1087 22.16 36.8554 22.16C37.6127 22.16 38.2954 22.336 38.9034 22.688C39.5114 23.04 39.9914 23.52 40.3434 24.128C40.706 24.7253 40.8874 25.3973 40.8874 26.144C40.8874 26.8907 40.706 27.568 40.3434 28.176C39.9914 28.784 39.5114 29.2693 38.9034 29.632C38.2954 29.984 37.6127 30.16 36.8554 30.16ZM36.8554 28.464C37.2927 28.464 37.6767 28.368 38.0074 28.176C38.3487 27.9733 38.61 27.696 38.7914 27.344C38.9834 26.992 39.0794 26.592 39.0794 26.144C39.0794 25.696 38.9834 25.3013 38.7914 24.96C38.5994 24.6187 38.338 24.352 38.0074 24.16C37.6767 23.9573 37.2927 23.856 36.8554 23.856C36.4287 23.856 36.0447 23.9573 35.7034 24.16C35.3727 24.352 35.1114 24.6187 34.9194 24.96C34.738 25.3013 34.6474 25.696 34.6474 26.144C34.6474 26.592 34.738 26.992 34.9194 27.344C35.1114 27.696 35.3727 27.9733 35.7034 28.176C36.0447 28.368 36.4287 28.464 36.8554 28.464Z" fill="black"/>
<path d="M26.2718 30.16C25.5038 30.16 24.7784 30.0107 24.0958 29.712C23.4131 29.4133 22.8158 29.0027 22.3038 28.48C21.7918 27.9467 21.3864 27.3333 21.0878 26.64C20.7998 25.936 20.6558 25.184 20.6558 24.384C20.6558 23.584 20.7998 22.8373 21.0878 22.144C21.3864 21.4507 21.7918 20.8427 22.3038 20.32C22.8264 19.7867 23.4344 19.376 24.1278 19.088C24.8318 18.7893 25.5891 18.64 26.3998 18.64C27.2851 18.64 28.1064 18.8107 28.8638 19.152C29.6211 19.4933 30.2558 19.9787 30.7678 20.608L29.5198 21.856C29.1891 21.3867 28.7464 21.0293 28.1918 20.784C27.6371 20.528 27.0398 20.4 26.3998 20.4C25.6318 20.4 24.9544 20.5707 24.3678 20.912C23.7918 21.2427 23.3438 21.7067 23.0238 22.304C22.7038 22.9013 22.5438 23.5947 22.5438 24.384C22.5438 25.1733 22.7038 25.872 23.0238 26.48C23.3544 27.0773 23.7971 27.5467 24.3518 27.888C24.9064 28.2293 25.5358 28.4 26.2398 28.4C26.9864 28.4 27.6264 28.2667 28.1598 28C28.7038 27.7227 29.1198 27.3173 29.4078 26.784C29.6958 26.24 29.8398 25.5733 29.8398 24.784L30.9918 25.616H26.2078V23.936H31.7438V24.192C31.7438 25.5253 31.5038 26.6347 31.0238 27.52C30.5544 28.4053 29.9091 29.0667 29.0878 29.504C28.2664 29.9413 27.3278 30.16 26.2718 30.16Z" fill="black"/>
<path d="M105.479 24.8333H96.1668C95.9307 24.8333 95.7328 24.7535 95.5731 24.5937C95.4134 24.434 95.3335 24.2361 95.3335 24C95.3335 23.7639 95.4134 23.566 95.5731 23.4062C95.7328 23.2465 95.9307 23.1667 96.1668 23.1667H105.479L101.396 19.0833C101.229 18.9167 101.149 18.7222 101.156 18.5C101.163 18.2778 101.25 18.0833 101.417 17.9167C101.583 17.7639 101.778 17.684 102 17.6771C102.222 17.6701 102.417 17.75 102.583 17.9167L108.083 23.4167C108.167 23.5 108.226 23.5903 108.261 23.6875C108.295 23.7847 108.313 23.8889 108.313 24C108.313 24.1111 108.295 24.2153 108.261 24.3125C108.226 24.4097 108.167 24.5 108.083 24.5833L102.583 30.0833C102.431 30.2361 102.24 30.3125 102.011 30.3125C101.781 30.3125 101.583 30.2361 101.417 30.0833C101.25 29.9167 101.167 29.7188 101.167 29.4896C101.167 29.2604 101.25 29.0625 101.417 28.8958L105.479 24.8333Z" fill="black"/>
</svg>
