<svg width="128" height="48" viewBox="0 0 128 48" fill="none" xmlns="http://www.w3.org/2000/svg">
<rect opacity="0.8" width="128" height="48" rx="24" fill="white"/>
<path d="M79.1127 30V19.12H80.8727V30H79.1127ZM77.2727 23.92V22.32H82.7127V23.92H77.2727Z" fill="black"/>
<path d="M73.5817 30.16C73.155 30.16 72.7444 30.1066 72.3497 30C71.955 29.8826 71.5924 29.7226 71.2617 29.52C70.931 29.3066 70.643 29.0506 70.3977 28.752L71.5177 27.632C71.7844 27.9413 72.0884 28.176 72.4297 28.336C72.7817 28.4853 73.1764 28.56 73.6137 28.56C74.0084 28.56 74.307 28.5013 74.5097 28.384C74.7124 28.2666 74.8137 28.096 74.8137 27.872C74.8137 27.6373 74.7177 27.456 74.5257 27.328C74.3337 27.2 74.083 27.0933 73.7737 27.008C73.475 26.912 73.155 26.816 72.8137 26.72C72.483 26.624 72.163 26.496 71.8537 26.336C71.555 26.1653 71.3097 25.936 71.1177 25.648C70.9257 25.36 70.8297 24.9866 70.8297 24.528C70.8297 24.0373 70.9417 23.616 71.1657 23.264C71.4004 22.912 71.7257 22.64 72.1417 22.448C72.5684 22.256 73.075 22.16 73.6617 22.16C74.2804 22.16 74.8244 22.272 75.2937 22.496C75.7737 22.7093 76.1737 23.0346 76.4937 23.472L75.3737 24.592C75.1497 24.3146 74.8937 24.1066 74.6057 23.968C74.3177 23.8293 73.987 23.76 73.6137 23.76C73.2617 23.76 72.9897 23.8133 72.7977 23.92C72.6057 24.0266 72.5097 24.1813 72.5097 24.384C72.5097 24.5973 72.6057 24.7626 72.7977 24.88C72.9897 24.9973 73.235 25.0986 73.5337 25.184C73.843 25.2693 74.163 25.3653 74.4937 25.472C74.835 25.568 75.155 25.7066 75.4537 25.888C75.763 26.0586 76.0137 26.2933 76.2057 26.592C76.3977 26.88 76.4937 27.2586 76.4937 27.728C76.4937 28.4746 76.2324 29.0666 75.7097 29.504C75.187 29.9413 74.4777 30.16 73.5817 30.16Z" fill="black"/>
<path d="M67.3358 30V22.32H69.0958V30H67.3358ZM68.2158 20.912C67.9171 20.912 67.6664 20.8107 67.4638 20.608C67.2718 20.4053 67.1758 20.1547 67.1758 19.856C67.1758 19.5573 67.2718 19.3067 67.4638 19.104C67.6664 18.9013 67.9171 18.8 68.2158 18.8C68.5251 18.8 68.7758 18.9013 68.9678 19.104C69.1598 19.3067 69.2558 19.5573 69.2558 19.856C69.2558 20.1547 69.1598 20.4053 68.9678 20.608C68.7758 20.8107 68.5251 20.912 68.2158 20.912Z" fill="black"/>
<path d="M63.601 30V18.48H65.361V30H63.601Z" fill="black"/>
<path d="M54.9022 30.16C54.1556 30.16 53.4782 29.984 52.8702 29.632C52.2622 29.2693 51.7769 28.784 51.4142 28.176C51.0622 27.568 50.8862 26.8906 50.8862 26.144C50.8862 25.3973 51.0622 24.7253 51.4142 24.128C51.7769 23.5306 52.2622 23.056 52.8702 22.704C53.4782 22.3413 54.1556 22.16 54.9022 22.16C55.6596 22.16 56.3422 22.336 56.9502 22.688C57.5582 23.04 58.0382 23.52 58.3902 24.128C58.7529 24.7253 58.9342 25.3973 58.9342 26.144C58.9342 26.8906 58.7529 27.568 58.3902 28.176C58.0382 28.784 57.5582 29.2693 56.9502 29.632C56.3422 29.984 55.6596 30.16 54.9022 30.16ZM54.9022 28.464C55.3396 28.464 55.7236 28.368 56.0542 28.176C56.3956 27.9733 56.6569 27.696 56.8382 27.344C57.0302 26.992 57.1262 26.592 57.1262 26.144C57.1262 25.696 57.0302 25.3013 56.8382 24.96C56.6462 24.6186 56.3849 24.352 56.0542 24.16C55.7236 23.9573 55.3396 23.856 54.9022 23.856C54.4756 23.856 54.0916 23.9573 53.7502 24.16C53.4196 24.352 53.1582 24.6186 52.9662 24.96C52.7849 25.3013 52.6942 25.696 52.6942 26.144C52.6942 26.592 52.7849 26.992 52.9662 27.344C53.1582 27.696 53.4196 27.9733 53.7502 28.176C54.0916 28.368 54.4756 28.464 54.9022 28.464Z" fill="black"/>
<path d="M46.7221 30V19.12H48.4821V30H46.7221ZM44.8821 23.92V22.32H50.3221V23.92H44.8821Z" fill="black"/>
<path d="M36.8554 30.16C36.1087 30.16 35.4314 29.984 34.8234 29.632C34.2154 29.2693 33.73 28.784 33.3674 28.176C33.0154 27.568 32.8394 26.8906 32.8394 26.144C32.8394 25.3973 33.0154 24.7253 33.3674 24.128C33.73 23.5306 34.2154 23.056 34.8234 22.704C35.4314 22.3413 36.1087 22.16 36.8554 22.16C37.6127 22.16 38.2954 22.336 38.9034 22.688C39.5114 23.04 39.9914 23.52 40.3434 24.128C40.706 24.7253 40.8874 25.3973 40.8874 26.144C40.8874 26.8906 40.706 27.568 40.3434 28.176C39.9914 28.784 39.5114 29.2693 38.9034 29.632C38.2954 29.984 37.6127 30.16 36.8554 30.16ZM36.8554 28.464C37.2927 28.464 37.6767 28.368 38.0074 28.176C38.3487 27.9733 38.61 27.696 38.7914 27.344C38.9834 26.992 39.0794 26.592 39.0794 26.144C39.0794 25.696 38.9834 25.3013 38.7914 24.96C38.5994 24.6186 38.338 24.352 38.0074 24.16C37.6767 23.9573 37.2927 23.856 36.8554 23.856C36.4287 23.856 36.0447 23.9573 35.7034 24.16C35.3727 24.352 35.1114 24.6186 34.9194 24.96C34.738 25.3013 34.6474 25.696 34.6474 26.144C34.6474 26.592 34.738 26.992 34.9194 27.344C35.1114 27.696 35.3727 27.9733 35.7034 28.176C36.0447 28.368 36.4287 28.464 36.8554 28.464Z" fill="black"/>
<path d="M26.272 30.16C25.504 30.16 24.7787 30.0106 24.096 29.712C23.4133 29.4133 22.816 29.0026 22.304 28.48C21.792 27.9466 21.3867 27.3333 21.088 26.64C20.8 25.936 20.656 25.184 20.656 24.384C20.656 23.584 20.8 22.8373 21.088 22.144C21.3867 21.4506 21.792 20.8426 22.304 20.32C22.8267 19.7866 23.4347 19.376 24.128 19.088C24.832 18.7893 25.5893 18.64 26.4 18.64C27.2853 18.64 28.1067 18.8106 28.864 19.152C29.6213 19.4933 30.256 19.9786 30.768 20.608L29.52 21.856C29.1893 21.3866 28.7467 21.0293 28.192 20.784C27.6373 20.528 27.04 20.4 26.4 20.4C25.632 20.4 24.9547 20.5706 24.368 20.912C23.792 21.2426 23.344 21.7066 23.024 22.304C22.704 22.9013 22.544 23.5946 22.544 24.384C22.544 25.1733 22.704 25.872 23.024 26.48C23.3547 27.0773 23.7973 27.5466 24.352 27.888C24.9067 28.2293 25.536 28.4 26.24 28.4C26.9867 28.4 27.6267 28.2666 28.16 28C28.704 27.7226 29.12 27.3173 29.408 26.784C29.696 26.24 29.84 25.5733 29.84 24.784L30.992 25.616H26.208V23.936H31.744V24.192C31.744 25.5253 31.504 26.6346 31.024 27.52C30.5547 28.4053 29.9093 29.0666 29.088 29.504C28.2667 29.9413 27.328 30.16 26.272 30.16Z" fill="black"/>
<path d="M105.479 24.8333H96.1667C95.9306 24.8333 95.7327 24.7534 95.573 24.5937C95.4132 24.434 95.3334 24.2361 95.3334 24C95.3334 23.7639 95.4132 23.5659 95.573 23.4062C95.7327 23.2465 95.9306 23.1666 96.1667 23.1666H105.479L101.396 19.0833C101.229 18.9166 101.149 18.7222 101.156 18.5C101.163 18.2777 101.25 18.0833 101.417 17.9166C101.583 17.7639 101.778 17.684 102 17.6771C102.222 17.6701 102.417 17.75 102.583 17.9166L108.083 23.4166C108.167 23.5 108.226 23.5902 108.26 23.6875C108.295 23.7847 108.313 23.8889 108.313 24C108.313 24.1111 108.295 24.2152 108.26 24.3125C108.226 24.4097 108.167 24.5 108.083 24.5833L102.583 30.0833C102.431 30.2361 102.24 30.3125 102.01 30.3125C101.781 30.3125 101.583 30.2361 101.417 30.0833C101.25 29.9166 101.167 29.7187 101.167 29.4896C101.167 29.2604 101.25 29.0625 101.417 28.8958L105.479 24.8333Z" fill="black"/>
</svg>
