<svg width="28" height="28" viewBox="0 0 28 28" fill="none" xmlns="http://www.w3.org/2000/svg">
<path d="M5.83333 24.4999C5.19167 24.4999 4.64236 24.2715 4.18542 23.8145C3.72847 23.3576 3.5 22.8083 3.5 22.1666V5.83327C3.5 5.19161 3.72847 4.6423 4.18542 4.18536C4.64236 3.72841 5.19167 3.49994 5.83333 3.49994H22.1667C22.8083 3.49994 23.3576 3.72841 23.8146 4.18536C24.2715 4.6423 24.5 5.19161 24.5 5.83327V22.1666C24.5 22.8083 24.2715 23.3576 23.8146 23.8145C23.3576 24.2715 22.8083 24.4999 22.1667 24.4999H5.83333ZM5.83333 22.1666H22.1667V5.83327H5.83333V22.1666ZM8.16667 19.8333H19.8333C20.0667 19.8333 20.2417 19.7263 20.3583 19.5124C20.475 19.2986 20.4556 19.0944 20.3 18.8999L17.0917 14.6124C16.975 14.4569 16.8194 14.3791 16.625 14.3791C16.4306 14.3791 16.275 14.4569 16.1583 14.6124L13.125 18.6666L10.9667 15.7791C10.85 15.6236 10.6944 15.5458 10.5 15.5458C10.3056 15.5458 10.15 15.6236 10.0333 15.7791L7.7 18.8999C7.54444 19.0944 7.525 19.2986 7.64167 19.5124C7.75833 19.7263 7.93333 19.8333 8.16667 19.8333ZM9.91667 11.6666C10.4028 11.6666 10.816 11.4965 11.1562 11.1562C11.4965 10.8159 11.6667 10.4027 11.6667 9.91661C11.6667 9.4305 11.4965 9.0173 11.1562 8.67702C10.816 8.33675 10.4028 8.16661 9.91667 8.16661C9.43056 8.16661 9.01736 8.33675 8.67708 8.67702C8.33681 9.0173 8.16667 9.4305 8.16667 9.91661C8.16667 10.4027 8.33681 10.8159 8.67708 11.1562C9.01736 11.4965 9.43056 11.6666 9.91667 11.6666Z" fill="#CFCFDC"/>
</svg>
